<svg id="Layer_1" data-name="Layer 1" xmlns="http://www.w3.org/2000/svg" viewBox="0 0 841.89 1902.13"><defs><style>.cls-1{fill:#1f2129;}.cls-2{fill:#fff;stroke:#fff;stroke-miterlimit:10;}</style></defs><rect class="cls-1" width="841.89" height="1902.13"/><line class="cls-2" x1="-2.62" y1="395.15" x2="208.39" y2="395.15"/><circle class="cls-2" cx="213.68" cy="395.05" r="5.87"/><line class="cls-2" x1="651.5" y1="-4.02" x2="651.5" y2="161.06"/><circle class="cls-2" cx="651.4" cy="166.39" r="5.9"/><line class="cls-2" x1="871.76" y1="525.61" x2="675.01" y2="525.61"/><circle class="cls-2" cx="669.14" cy="525.5" r="5.87"/><line class="cls-2" x1="872.89" y1="489.57" x2="755.77" y2="489.57"/><circle class="cls-2" cx="749.89" cy="489.14" r="5.87"/><line class="cls-2" x1="840.76" y1="826.79" x2="717.56" y2="826.79"/><circle class="cls-2" cx="712.26" cy="826.68" r="5.87"/><line class="cls-2" x1="-15.76" y1="957.24" x2="135.01" y2="957.24"/><circle class="cls-2" cx="140.88" cy="957.14" r="5.87"/><line class="cls-2" x1="-16.62" y1="921.2" x2="59.63" y2="921.2"/><circle class="cls-2" cx="60.12" cy="920.77" r="5.87"/><line class="cls-2" x1="-169.81" y1="1164.33" x2="41.2" y2="1164.33"/><circle class="cls-2" cx="46.5" cy="1164.22" r="5.87"/><line class="cls-2" x1="882.85" y1="1294.78" x2="686.09" y2="1294.78"/><circle class="cls-2" cx="680.22" cy="1294.68" r="5.87"/><line class="cls-2" x1="883.98" y1="1258.74" x2="766.85" y2="1258.74"/><circle class="cls-2" cx="760.98" cy="1258.31" r="5.87"/><line class="cls-2" x1="840.76" y1="1595.96" x2="717.56" y2="1595.96"/><circle class="cls-2" cx="712.26" cy="1595.85" r="5.87"/><line class="cls-2" x1="-1.76" y1="1726.42" x2="149.01" y2="1726.42"/><circle class="cls-2" cx="154.88" cy="1726.31" r="5.87"/><line class="cls-2" x1="-2.62" y1="1690.37" x2="73.63" y2="1690.37"/><circle class="cls-2" cx="74.12" cy="1689.95" r="5.87"/></svg>