<svg id="Layer_1" data-name="Layer 1" xmlns="http://www.w3.org/2000/svg" viewBox="0 0 841.89 153.08"><defs><style>.cls-1{fill:#1f2129;}.cls-2{font-size:16.29px;fill:#fff;font-family:WorkSans-Regular, Work Sans;}.cls-3{letter-spacing:-0.07em;}.cls-4{letter-spacing:-0.02em;}.cls-5{letter-spacing:0em;}.cls-6{letter-spacing:-0.02em;}.cls-7{letter-spacing:-0.02em;}.cls-8{letter-spacing:-0.01em;}.cls-9{letter-spacing:-0.03em;}.cls-10{letter-spacing:-0.05em;}.cls-11,.cls-12{fill:#56a099;}.cls-11,.cls-13{stroke:#56a099;stroke-miterlimit:10;}.cls-11{stroke-width:0.5px;}.cls-13{fill:none;}.cls-14{letter-spacing:0.02em;}.cls-15{letter-spacing:-0.01em;}</style></defs><rect class="cls-1" y="-0.54" width="841.89" height="153.62"/><text class="cls-2" transform="translate(141.45 82.38) scale(0.97 1)">0491<tspan class="cls-3" x="36.9" y="0">7</tspan><tspan x="44.95" y="0">405</tspan><tspan class="cls-4" x="74.52" y="0">8</tspan><tspan x="84.23" y="0">3</tspan></text><text class="cls-2" transform="translate(141.19 45.52) scale(0.97 1)"><tspan class="cls-5">S</tspan><tspan x="10.36" y="0">pie</tspan><tspan class="cls-6" x="34.43" y="0">k</tspan><tspan x="43.37" y="0">e</tspan><tspan class="cls-7" x="52.84" y="0">r</tspan><tspan x="59.14" y="0">st</tspan><tspan class="cls-8" x="74.55" y="0">r</tspan><tspan x="80.97" y="0">a</tspan><tspan class="cls-4" x="90.19" y="0">a</tspan><tspan x="99.09" y="0">t</tspan><tspan class="cls-4" x="105.91" y="0"> </tspan><tspan x="111.14" y="0">18, 8630</tspan><tspan class="cls-9" x="177.47" y="0"> </tspan><tspan class="cls-10" x="182.47" y="0">V</tspan><tspan x="192.28" y="0">eurne</tspan></text><path class="cls-11" d="M114.65,69.23a1.74,1.74,0,0,0-.32,0,.28.28,0,0,0-.24.29.28.28,0,0,0,.25.27h.22a4.87,4.87,0,0,1,4.68,4.8c0,.22.13.36.3.35s.29-.13.27-.35a8.41,8.41,0,0,0-.16-1.24A5.45,5.45,0,0,0,114.65,69.23Zm-.17,3.45c-.25,0-.38.08-.39.26s.11.29.32.31a1.42,1.42,0,0,1,1.4,1.39c0,.21.12.33.29.32s.28-.14.28-.35A2,2,0,0,0,114.48,72.68Z"/><path class="cls-11" d="M117.83,84.14c-.36-.06-.73-.11-1.09-.19a10.74,10.74,0,0,1-3.36-1.52,25.33,25.33,0,0,1-4.78-4.17,19.58,19.58,0,0,1-2.6-3.41,10.09,10.09,0,0,1-1.26-3.14l-.12-.78v-.84c.06-.28.1-.56.16-.84a2,2,0,0,1,1-1.3l1.42-.85a1,1,0,0,1,1.41.32c.77,1.13,1.53,2.27,2.29,3.42a1,1,0,0,1-.24,1.41l-1.2.94a.47.47,0,0,0-.14.69,11.48,11.48,0,0,0,2,2.74,16.09,16.09,0,0,0,2.51,2.23c.34.24.71.44,1.08.65a.44.44,0,0,0,.63-.13l1-1.22a1,1,0,0,1,1.44-.23l3.41,2.27a1,1,0,0,1,.31,1.41c-.25.42-.52.84-.75,1.27a2.26,2.26,0,0,1-1.83,1.2l-.41.07Zm.52-.57.71-.08a1.68,1.68,0,0,0,1.35-.9c.22-.42.48-.82.73-1.23a.46.46,0,0,0-.17-.73l-3.32-2.22a.47.47,0,0,0-.72.11L116,79.73a1,1,0,0,1-1.35.28c-.26-.15-.53-.29-.79-.45a14,14,0,0,1-2.41-2,13.34,13.34,0,0,1-2.69-3.43,1,1,0,0,1,.29-1.38l1.2-.93a.45.45,0,0,0,.12-.68l-2.26-3.39a.45.45,0,0,0-.67-.15l-1.41.85a1.46,1.46,0,0,0-.7,1,5.33,5.33,0,0,0,.09,2.69,11.32,11.32,0,0,0,1.84,3.63A26.83,26.83,0,0,0,111.17,80a16.89,16.89,0,0,0,3.91,2.74A7.53,7.53,0,0,0,118.35,83.57Z"/><path class="cls-11" d="M103.5,106.35s0-.11,0-.17A1.56,1.56,0,0,1,105,105h15.45a1.56,1.56,0,0,1,1.62,1.34c0,.1,0,.21,0,.31v10.67a1.56,1.56,0,0,1-1.66,1.65H105.21a1.56,1.56,0,0,1-1.69-1.28s0,0,0,0Zm1.43-.51,0,0,.14.12,7.14,6.51a.8.8,0,0,0,1.25,0l7.13-6.51a.71.71,0,0,1,.14-.1l0,0Zm-.05,12.32,0,0h15.85c-2.06-1.95-4.08-3.86-6.19-5.69l-.61.55a1.56,1.56,0,0,1-2.31,0l-.63-.57Zm-.59-.52,6.15-5.67-6.15-5.61ZM115.17,112l6.15,5.67V106.36Z"/><path class="cls-12" d="M113.71,30.07c.41.07.83.12,1.24.21a8.45,8.45,0,0,1,6.45,6.61,8.18,8.18,0,0,1-.7,5.35,9.65,9.65,0,0,1-1.41,1.9l-5.58,6.56a.74.74,0,0,1-1.22,0q-3.1-3.63-6.19-7.27a6.91,6.91,0,0,1-1.63-3.95,8.36,8.36,0,0,1,2.78-7.26,8,8,0,0,1,4.85-2.12l.18,0Zm-.62,19.09.12-.13c1.62-1.91,3.25-3.81,4.86-5.72a11.89,11.89,0,0,0,1.2-1.55,6.21,6.21,0,0,0,.7-4.52,7,7,0,0,0-13.87,1.87,5.82,5.82,0,0,0,1.36,3.44c1.64,1.91,3.26,3.83,4.89,5.75Z"/><path class="cls-12" d="M117.19,38.52a4.1,4.1,0,1,1-4.1-4.1A4.11,4.11,0,0,1,117.19,38.52Zm-6.73,0a2.64,2.64,0,1,0,2.65-2.62A2.64,2.64,0,0,0,110.46,38.51Z"/><path class="cls-12" d="M596,70.4a7.08,7.08,0,0,1,3.82.87,4.63,4.63,0,0,1,2.07,3.37,17.14,17.14,0,0,1,.13,1.89v5.26a12.22,12.22,0,0,1-.26,2.48,4.57,4.57,0,0,1-4.08,3.52l-1.43.13h-6a6.52,6.52,0,0,1-3.68-.92,4.7,4.7,0,0,1-2-3.31,19.39,19.39,0,0,1-.13-2V76.53a8,8,0,0,1,.62-3.49,4.45,4.45,0,0,1,3.56-2.5c.57-.08,1.15-.1,1.72-.14Zm4.44,8.79c0-1.29.06-2.59,0-3.88a3.21,3.21,0,0,0-3.3-3.32,61,61,0,0,0-8.11.08,3.17,3.17,0,0,0-2.95,3.21,74.59,74.59,0,0,0,0,7.77,3.17,3.17,0,0,0,3.29,3.29,69.72,69.72,0,0,0,7.65,0,3.13,3.13,0,0,0,3.31-2.74A22.37,22.37,0,0,0,600.44,79.19Z"/><path class="cls-12" d="M593.35,83.62a4.47,4.47,0,1,1,4.37-4.54A4.42,4.42,0,0,1,593.35,83.62Zm2.89-4.53a3,3,0,0,0-3.07-2.9,3,3,0,1,0,3.07,2.9Z"/><path class="cls-12" d="M597.94,73.42a1.13,1.13,0,0,1,1.06,1,1.26,1.26,0,0,1-1.13,1.1c-.36,0-1-.71-1-1.12A1.25,1.25,0,0,1,597.94,73.42Z"/><path class="cls-12" d="M593.69,48.82v-7h-2.1v-2.4h2.1V37.14a2.61,2.61,0,0,1,2.28-2.5c2.18-.22,2.49,0,2.49,0v2.15s-2.19-.36-2.34.56a10.49,10.49,0,0,0,0,2h2.3l-.27,2.4h-2.05v7.07Z"/><path class="cls-13" d="M595.91,31.53a7.08,7.08,0,0,1,3.82.87,4.63,4.63,0,0,1,2.07,3.37,15,15,0,0,1,.13,1.9v5.25a12.88,12.88,0,0,1-.25,2.48,4.6,4.6,0,0,1-4.09,3.53l-1.43.13h-6a6.53,6.53,0,0,1-3.68-.93,4.67,4.67,0,0,1-2-3.31,19.39,19.39,0,0,1-.14-2V37.66a8,8,0,0,1,.62-3.49,4.46,4.46,0,0,1,3.56-2.49c.57-.08,1.15-.1,1.72-.15Z"/><text class="cls-2" transform="translate(140.16 116.64) scale(0.97 1)">elan<tspan class="cls-14" x="33.76" y="0">.</tspan><tspan x="38.42" y="0">goens@h</tspan><tspan class="cls-15" x="111.53" y="0">o</tspan><tspan x="121.29" y="0">tmail</tspan><tspan class="cls-4" x="162.19" y="0">.</tspan><tspan x="166.19" y="0">com</tspan></text><text class="cls-2" transform="translate(620.8 44.87) scale(0.97 1)">Elan Goens</text><text class="cls-2" transform="translate(620.8 84.63) scale(0.97 1)">elan<tspan class="cls-14" x="33.76" y="0">.</tspan><tspan x="38.42" y="0">goens</tspan></text></svg>