<svg id="Layer_1" data-name="Layer 1" xmlns="http://www.w3.org/2000/svg" viewBox="0 0 841.89 153.08"><defs><style>.cls-1{fill:#1f2129;}.cls-2{font-size:12.37px;fill:#fff;font-family:WorkSans-Regular, Work Sans;}.cls-3{letter-spacing:-0.07em;}.cls-4{letter-spacing:-0.02em;}.cls-5{letter-spacing:0em;}.cls-6{letter-spacing:-0.02em;}.cls-7{letter-spacing:-0.02em;}.cls-8{letter-spacing:-0.01em;}.cls-9{letter-spacing:-0.02em;}.cls-10{letter-spacing:-0.03em;}.cls-11{letter-spacing:-0.05em;}.cls-12,.cls-13{fill:#56a099;}.cls-12,.cls-14{stroke:#56a099;stroke-miterlimit:10;}.cls-12{stroke-width:0.5px;}.cls-14{fill:none;}.cls-15{letter-spacing:0.02em;}.cls-16{letter-spacing:0em;}.cls-17{letter-spacing:-0.01em;}.cls-18{letter-spacing:0em;}</style></defs><rect class="cls-1" y="-0.54" width="841.89" height="153.62"/><text class="cls-2" transform="translate(152.58 73.32) scale(0.97 1)">0491<tspan class="cls-3" x="28.02" y="0">7</tspan><tspan x="34.14" y="0">405</tspan><tspan class="cls-4" x="56.59" y="0">8</tspan><tspan x="63.97" y="0">3</tspan></text><text class="cls-2" transform="translate(152.38 45.32) scale(0.97 1)"><tspan class="cls-5">S</tspan><tspan x="7.87" y="0">pie</tspan><tspan class="cls-6" x="26.14" y="0">k</tspan><tspan x="32.94" y="0">e</tspan><tspan class="cls-7" x="40.12" y="0">r</tspan><tspan x="44.91" y="0">st</tspan><tspan class="cls-8" x="56.62" y="0">r</tspan><tspan x="61.49" y="0">a</tspan><tspan class="cls-9" x="68.49" y="0">a</tspan><tspan x="75.25" y="0">t</tspan><tspan class="cls-4" x="80.44" y="0"> </tspan><tspan x="84.41" y="0">18, 8630</tspan><tspan class="cls-10" x="134.78" y="0"> </tspan><tspan class="cls-11" x="138.57" y="0">V</tspan><tspan x="146.02" y="0">eurne</tspan></text><path class="cls-12" d="M132.23,63.33H132a.21.21,0,0,0-.19.22.21.21,0,0,0,.19.2h.17a3.65,3.65,0,0,1,2.68,1.31,3.59,3.59,0,0,1,.87,2.34c0,.17.1.27.23.27a.23.23,0,0,0,.21-.27,7.33,7.33,0,0,0-.13-.94A4.14,4.14,0,0,0,132.23,63.33Zm-.13,2.61c-.19,0-.29.06-.3.2s.08.22.25.24a1.07,1.07,0,0,1,1,1.06c0,.15.1.24.23.24s.21-.11.21-.27A1.53,1.53,0,0,0,132.1,65.94Z"/><path class="cls-12" d="M134.64,74.65c-.28-.05-.55-.08-.83-.15a8,8,0,0,1-2.55-1.15,19.52,19.52,0,0,1-3.63-3.16,15.07,15.07,0,0,1-2-2.6,7.58,7.58,0,0,1-1-2.38l-.09-.59V64c0-.21.07-.43.12-.64a1.51,1.51,0,0,1,.73-1l1.08-.65a.76.76,0,0,1,1.07.24l1.73,2.59a.77.77,0,0,1-.17,1.08l-.92.71a.36.36,0,0,0-.1.53,8.78,8.78,0,0,0,1.56,2.08,12.22,12.22,0,0,0,1.9,1.69c.26.18.54.33.82.49a.33.33,0,0,0,.48-.09l.72-.93a.76.76,0,0,1,1.09-.18l2.59,1.73a.76.76,0,0,1,.24,1.07c-.19.32-.39.63-.57,1a1.74,1.74,0,0,1-1.39.92l-.31.05Zm.39-.43.54-.06a1.3,1.3,0,0,0,1-.69c.17-.32.37-.62.55-.93s.12-.4-.12-.56L134.5,70.3a.35.35,0,0,0-.54.08l-.71.92a.77.77,0,0,1-1,.21c-.21-.11-.41-.22-.6-.34a10.7,10.7,0,0,1-1.84-1.52,10.17,10.17,0,0,1-2-2.61.77.77,0,0,1,.22-1l.92-.71a.34.34,0,0,0,.08-.51l-1.71-2.58a.34.34,0,0,0-.51-.11l-1.07.64a1.16,1.16,0,0,0-.53.73,4,4,0,0,0,.06,2,8.88,8.88,0,0,0,1.4,2.76,20.3,20.3,0,0,0,3,3.24,12.9,12.9,0,0,0,3,2.09A5.74,5.74,0,0,0,135,74.22Z"/><path class="cls-12" d="M123.75,91.52a1.12,1.12,0,0,0,0-.13,1.18,1.18,0,0,1,1.12-.87h11.73a1.17,1.17,0,0,1,1.23,1,1.77,1.77,0,0,1,0,.23c0,2.7,0,5.41,0,8.11a1.19,1.19,0,0,1-1.26,1.25H125.05a1.18,1.18,0,0,1-1.28-1l0,0Zm1.09-.39v0l.1.09,5.43,5a.61.61,0,0,0,.95,0l5.41-4.94.11-.08,0,0Zm0,9.35,0,0h12c-1.56-1.49-3.1-2.94-4.7-4.33l-.46.42a1.19,1.19,0,0,1-1.75,0l-.48-.43Zm-.44-.39,4.67-4.3-4.67-4.27Zm8.26-4.3,4.67,4.3V91.53Z"/><path class="cls-13" d="M131.51,33.59c.31,0,.63.09.94.15a6.45,6.45,0,0,1,4.9,5,6.22,6.22,0,0,1-.53,4.07,7.18,7.18,0,0,1-1.07,1.44l-4.24,5a.56.56,0,0,1-.93,0l-4.7-5.52a5.23,5.23,0,0,1-1.23-3,6.34,6.34,0,0,1,2.1-5.51,6.08,6.08,0,0,1,3.69-1.61l.14,0ZM131,48.08l.09-.1,3.7-4.34a9.19,9.19,0,0,0,.91-1.17,4.75,4.75,0,0,0,.52-3.44,5.3,5.3,0,0,0-7.47-3.84,5.36,5.36,0,0,0-3.06,5.26,4.5,4.5,0,0,0,1,2.62c1.25,1.45,2.48,2.9,3.72,4.36Z"/><path class="cls-13" d="M134.15,40A3.11,3.11,0,1,1,131,36.89,3.1,3.1,0,0,1,134.15,40ZM129,40a2,2,0,1,0,2-2A2,2,0,0,0,129,40Z"/><path class="cls-13" d="M633.52,64.21a5.43,5.43,0,0,1,2.9.66A3.52,3.52,0,0,1,638,67.43a11.61,11.61,0,0,1,.1,1.44v4a9.18,9.18,0,0,1-.19,1.89,3.47,3.47,0,0,1-3.11,2.67l-1.08.1h-4.55a5,5,0,0,1-2.79-.7,3.53,3.53,0,0,1-1.49-2.51c-.07-.51-.08-1-.1-1.53V68.87a6,6,0,0,1,.47-2.65,3.38,3.38,0,0,1,2.7-1.9c.43-.06.87-.07,1.31-.11Zm3.37,6.68c0-1,.05-2,0-3a2.43,2.43,0,0,0-2.5-2.52,46.92,46.92,0,0,0-6.16.06A2.41,2.41,0,0,0,626,67.92a55.29,55.29,0,0,0,0,5.9,2.41,2.41,0,0,0,2.5,2.5,53.62,53.62,0,0,0,5.81,0,2.38,2.38,0,0,0,2.51-2.08A16.29,16.29,0,0,0,636.89,70.89Z"/><path class="cls-13" d="M631.51,74.26a3.4,3.4,0,1,1,3.32-3.45A3.38,3.38,0,0,1,631.51,74.26Zm2.19-3.44a2.3,2.3,0,0,0-2.33-2.21,2.26,2.26,0,1,0,2.33,2.21Z"/><path class="cls-13" d="M635,66.5a.88.88,0,0,1,.8.79,1,1,0,0,1-.86.84c-.28,0-.77-.54-.77-.86A1,1,0,0,1,635,66.5Z"/><path class="cls-13" d="M631.77,47.83V42.49h-1.6V40.66h1.6V39a2,2,0,0,1,1.73-1.9c1.65-.17,1.89,0,1.89,0v1.63s-1.67-.27-1.77.43a7.64,7.64,0,0,0,0,1.54h1.74l-.21,1.82h-1.55v5.37Z"/><path class="cls-14" d="M633.45,34.7a5.41,5.41,0,0,1,2.9.65,3.52,3.52,0,0,1,1.57,2.57,9.77,9.77,0,0,1,.1,1.44v4a9.16,9.16,0,0,1-.19,1.88,3.49,3.49,0,0,1-3.1,2.68l-1.09.09h-4.55a4.83,4.83,0,0,1-2.79-.7,3.6,3.6,0,0,1-1.49-2.51c-.07-.51-.08-1-.1-1.53V39.35a6,6,0,0,1,.47-2.65,3.37,3.37,0,0,1,2.7-1.89c.44-.06.88-.08,1.31-.11Z"/><text class="cls-2" transform="translate(151.6 99.33) scale(0.97 1)">elan<tspan class="cls-15" x="25.64" y="0">.</tspan><tspan class="cls-16" x="29.17" y="0">goens@h</tspan><tspan class="cls-17" x="84.7" y="0">o</tspan><tspan x="92.11" y="0">tmail</tspan><tspan class="cls-4" x="123.17" y="0">.</tspan><tspan class="cls-18" x="126.21" y="0">com</tspan></text><text class="cls-2" transform="translate(652.36 44.82) scale(0.97 1)">Elan Goens</text><text class="cls-2" transform="translate(652.36 75.02) scale(0.97 1)">elan<tspan class="cls-15" x="25.64" y="0">.</tspan><tspan class="cls-16" x="29.17" y="0">goens</tspan></text></svg>