<svg id="Layer_1" data-name="Layer 1" xmlns="http://www.w3.org/2000/svg" viewBox="0 0 378.75 449.83"><defs><style>.cls-1{fill:#1f2129;}.cls-2{font-size:13.52px;fill:#fff;}.cls-19,.cls-2{font-family:WorkSans-Regular, Work Sans;}.cls-3{letter-spacing:-0.02em;}.cls-4{letter-spacing:-0.03em;}.cls-5{letter-spacing:-0.05em;}.cls-6{letter-spacing:0em;}.cls-7{font-family:WorkSans-SemiBold, Work Sans;font-weight:600;}.cls-8{letter-spacing:-0.04em;}.cls-9{letter-spacing:-0.02em;}.cls-10{letter-spacing:-0.04em;}.cls-11{letter-spacing:0em;}.cls-12{letter-spacing:-0.03em;}.cls-13{letter-spacing:-0.05em;}.cls-14{letter-spacing:-0.02em;}.cls-15{letter-spacing:-0.04em;}.cls-16{letter-spacing:-0.02em;}.cls-17{letter-spacing:-0.01em;}.cls-18{letter-spacing:-0.01em;}.cls-19{font-size:13.66px;fill:#56a099;}</style></defs><rect class="cls-1" width="378.75" height="449.83"/><text class="cls-2" transform="translate(116.44 50.89) scale(0.97 1)">TURNC<tspan class="cls-3" x="46.09" y="0">L</tspan><tspan x="53.96" y="0">UB ZEE</tspan><tspan class="cls-4" x="102.9" y="0">S</tspan><tspan x="111.16" y="0">TERN, DE </tspan><tspan class="cls-5" x="178.05" y="0">P</tspan><tspan class="cls-6" x="185.65" y="0">ANNE</tspan><tspan class="cls-7"><tspan x="0" y="18.03">TRAINER</tspan></tspan><tspan x="0" y="54.08">WEBSITE</tspan><tspan class="cls-8" x="59.91" y="54.08"> </tspan><tspan class="cls-9" x="63.95" y="54.08">Y</tspan><tspan x="71.41" y="54.08">OG</tspan><tspan class="cls-10" x="91.31" y="54.08">A</tspan><tspan class="cls-11" x="99.69" y="54.08" xml:space="preserve"> SOFIE</tspan><tspan class="cls-7"><tspan x="0" y="72.1">CO-ONTWIKKELAAR</tspan></tspan><tspan x="0" y="108.16">WEBSITE ZEE</tspan><tspan class="cls-12" x="90.28" y="108.16">S</tspan><tspan x="98.54" y="108.16">TERN, DE </tspan><tspan class="cls-13" x="165.44" y="108.16">P</tspan><tspan x="173.03" y="108.16">ANNE</tspan><tspan class="cls-7"><tspan x="0" y="126.18">CO-ONTWIKKELAAR</tspan></tspan><tspan x="0" y="162.24">WEBSITE HANNAH PH</tspan><tspan class="cls-14" x="144.83" y="162.24">OT</tspan><tspan x="162.52" y="162.24">OGRAPH</tspan><tspan class="cls-15" x="218.5" y="162.24">Y</tspan><tspan class="cls-7"><tspan x="0" y="180.26">CO-ONTWIKKELAAR</tspan></tspan><tspan x="0" y="216.31">WEBSITE</tspan><tspan class="cls-16" x="59.91" y="216.31"> </tspan><tspan x="64.19" y="216.31">JU</tspan><tspan class="cls-17" x="81.58" y="216.31">R</tspan><tspan class="cls-11" x="90.49" y="216.31">GEN </tspan><tspan class="cls-18" x="123.43" y="216.31">B</tspan><tspan x="132.13" y="216.31">AEYENS</tspan><tspan class="cls-7"><tspan x="0" y="234.34">CO-ONTWIKKELAAR</tspan></tspan></text><text class="cls-19" transform="translate(37.84 50.89) scale(0.97 1)"><tspan xml:space="preserve">2016/18           </tspan><tspan x="0" y="54.63">2020</tspan><tspan x="0" y="109.26">2020</tspan><tspan x="0" y="163.9">2021</tspan><tspan x="0" y="218.53" xml:space="preserve">2021                      </tspan></text></svg>