<svg id="Layer_1" data-name="Layer 1" xmlns="http://www.w3.org/2000/svg" viewBox="0 0 378.75 366.06"><defs><style>.cls-1,.cls-2{fill:#1f2129;}.cls-2{stroke:#56a099;stroke-miterlimit:10;}.cls-3{fill:#fff;}</style></defs><rect class="cls-1" width="378.75" height="366.06"/><circle class="cls-2" cx="130.9" cy="132.4" r="38.8"/><circle class="cls-2" cx="241.22" cy="132.4" r="38.8"/><circle class="cls-2" cx="130.9" cy="233.65" r="38.8"/><circle class="cls-2" cx="240.67" cy="233.65" r="38.8"/><path class="cls-3" d="M170.9,265.46h-1.73a10.39,10.39,0,0,1,0-8.46h1.73a3.5,3.5,0,0,0,0-7h-7a5.69,5.69,0,0,0,1.43-3.78V235.27a5.76,5.76,0,0,0-5.75-5.75h-2.83a3.55,3.55,0,0,0-3.18-5.15h-1a8.12,8.12,0,0,1,0-6.38h1a3.56,3.56,0,1,0,0-7.11H120.43a10.3,10.3,0,0,0-6.05,18.64h-.76a3.5,3.5,0,1,0,0,7h1.73a10.49,10.49,0,0,1,0,8.47h-1.73a3.49,3.49,0,0,0-2.88,5.48,5.77,5.77,0,0,0-3.5,5.29v11a5.75,5.75,0,0,0,5.75,5.74H170.9a3.5,3.5,0,1,0,0-7Zm0-13.49a1.53,1.53,0,1,1,0,3.06H153.15a1,1,0,1,0,0,2h13.91a13,13,0,0,0-.71,3.24,11.13,11.13,0,0,0,.71,5.22H114.52a.29.29,0,0,1-.28-.28v-7.9a.29.29,0,0,1,.28-.28h9.75v3.23a1.39,1.39,0,0,0,.7,1.49,1.42,1.42,0,0,0,1.64-.4h0l2.75-2.63,2.75,2.63h0a1.66,1.66,0,0,0,1.13.52,1.16,1.16,0,0,0,.51-.12,1.4,1.4,0,0,0,.7-1.5V257H148.3a1,1,0,1,0,0-2H134.48V252Zm-52.73-12.21a12.57,12.57,0,0,0-.72-3.25h40.64a.29.29,0,0,1,.28.29v7.89a.29.29,0,0,1-.28.29H134.48v-3.25h6.88a1,1,0,0,0,0-2Zm6.09,5.22h-6.81a13.17,13.17,0,0,0,.71-3.25h6.1Zm8.26-3.25V259l-2.46-2.35a1,1,0,0,0-1.36,0L126.23,259V241.73Zm-20.43-20.55a8.35,8.35,0,0,1,8.34-8.34h33.18a1.59,1.59,0,0,1,0,3.18H135.48a1,1,0,1,0,0,2h15.06a10.09,10.09,0,0,0,0,6.38H120.43a3.19,3.19,0,0,1,0-6.38h10.2a1,1,0,1,0,0-2h-10.2a5.16,5.16,0,0,0,0,10.32h33.18a1.59,1.59,0,0,1,0,3.18H120.43a8.35,8.35,0,0,1-8.34-8.34Zm1.53,13.36a1.53,1.53,0,0,1,0-3.06h46a3.79,3.79,0,0,1,3.78,3.79v10.95a3.78,3.78,0,0,1-3.78,3.78H134.48v-3.06h23.61a2.25,2.25,0,0,0,2.25-2.25V236.8a2.26,2.26,0,0,0-2.25-2.26Zm0,12.4h10.64V250H113.62a1.53,1.53,0,0,1,0-3.06Zm57.28,23.55H113a3.78,3.78,0,0,1-3.78-3.78v-11A3.78,3.78,0,0,1,113,252h11.27V255h-9.75a2.25,2.25,0,0,0-2.25,2.25v7.9a2.25,2.25,0,0,0,2.25,2.25H170.9a1.53,1.53,0,1,1,0,3.06Z"/><path class="cls-3" d="M169.48,112H166a1,1,0,0,0,0,2h3.45a3,3,0,0,1,3,3v4.53H109.21v-4.53a3,3,0,0,1,3-3h49.55a1,1,0,1,0,0-2H112.16a4.93,4.93,0,0,0-4.92,4.92v10.85a1,1,0,0,0,2,0v-4.36h63.22v25.37a1,1,0,0,0,2,0V116.93A4.93,4.93,0,0,0,169.48,112Z"/><path class="cls-3" d="M173.41,152a1,1,0,0,0-1,1v2.55a3,3,0,0,1-3,2.95H112.16a3,3,0,0,1-3-2.95V132a1,1,0,1,0-2,0v23.49a4.92,4.92,0,0,0,4.92,4.92h57.32a4.92,4.92,0,0,0,4.92-4.92v-2.55A1,1,0,0,0,173.41,152Z"/><path class="cls-3" d="M121.47,133.39a1,1,0,0,0-1.39,0l-5.91,5.91a1,1,0,0,0,0,1.39l5.83,5.83a1,1,0,0,0,.7.29.94.94,0,0,0,.69-.29,1,1,0,0,0,0-1.39L116.25,140l5.22-5.21a1,1,0,0,0,0-1.39Z"/><path class="cls-3" d="M134.7,146.52a1,1,0,0,0,1.39,0l5.83-5.83a1,1,0,0,0,0-1.39L136,133.39a1,1,0,0,0-1.39,0,1,1,0,0,0,0,1.39l5.22,5.21-5.14,5.14a1,1,0,0,0,0,1.39Z"/><path class="cls-3" d="M124.55,150.15a1,1,0,0,0,.92-.64l7-18.41a1,1,0,0,0-1.84-.7l-7,18.41a1,1,0,0,0,.58,1.27.83.83,0,0,0,.34.07Z"/><path class="cls-3" d="M111.57,117.77a3,3,0,1,0,3-3A3,3,0,0,0,111.57,117.77Zm3.94,0a1,1,0,1,1-1-1A1,1,0,0,1,115.51,117.77Z"/><path class="cls-3" d="M119.2,117.77a3,3,0,1,0,3-3A3,3,0,0,0,119.2,117.77Zm3.93,0a1,1,0,1,1-1-1A1,1,0,0,1,123.13,117.77Z"/><path class="cls-3" d="M126.83,117.77a3,3,0,1,0,3-3A3,3,0,0,0,126.83,117.77Zm3.93,0a1,1,0,1,1-1-1A1,1,0,0,1,130.76,117.77Z"/><path class="cls-3" d="M151.25,134.42h6.16a2.95,2.95,0,1,0,0-5.9h-6.16a3,3,0,0,0,0,5.9Zm0-3.93h6.16a1,1,0,1,1,0,2h-6.16a1,1,0,1,1,0-2Z"/><path class="cls-3" d="M151.25,142.29h16.26a2.95,2.95,0,0,0,0-5.9H151.25a3,3,0,1,0,0,5.9Zm0-3.93h16.26a1,1,0,0,1,0,2H151.25a1,1,0,1,1,0-2Z"/><path class="cls-3" d="M151.25,150.16h11.43a3,3,0,0,0,0-5.9H151.25a3,3,0,0,0,0,5.9Zm0-3.93h11.43a1,1,0,0,1,0,2H151.25a1,1,0,1,1,0-2Z"/><path class="cls-3" d="M248.85,153.8a6.4,6.4,0,0,0,0-9,6.48,6.48,0,0,0-2-1.34,1,1,0,1,0-.78,1.8,4.45,4.45,0,1,1-3.51,0,1,1,0,0,0,.52-1.3,1,1,0,0,0-1.29-.51,6.39,6.39,0,0,0-2,10.39,6.4,6.4,0,0,0,9,0Z"/><path class="cls-3" d="M286.86,115.22l-.55-.55a2.54,2.54,0,0,0-.14-3.44l-.43-.43a1,1,0,0,0-1.39,0,1,1,0,0,0,0,1.39l.43.43a.55.55,0,0,1,.17.44.58.58,0,0,1-.22.42l-7.63,6-2.94-2.94,6-7.63a.58.58,0,0,1,.86-.06l.33.34a1,1,0,0,0,1.39,0,1,1,0,0,0,0-1.39l-.33-.34a2.54,2.54,0,0,0-3.44-.14l-.56-.55a1,1,0,0,0-1.39,1.39l.69.69-.85,1.08-.53-.52a1,1,0,1,0-1.39,1.39l.69.7-.85,1.08-.39-.39a1,1,0,0,0-1.39,0,1,1,0,0,0,0,1.4l.56.55-1,1.34a1.74,1.74,0,0,0-.36,1.23L256.4,131.82a10.62,10.62,0,0,0-7.32-2.9H249a10.38,10.38,0,0,0-9.41,6.06,5.77,5.77,0,0,1-5,3.36,15.07,15.07,0,0,0-10.16,4.35A14.88,14.88,0,0,0,220,153.32a15.26,15.26,0,0,0,4.5,10.91l4.88,4.88a15.36,15.36,0,0,0,9.69,4.45c.39,0,.78.05,1.17.05a15,15,0,0,0,8.94-2.93,1,1,0,0,0,.21-1.38,1,1,0,0,0-1.38-.2,13.33,13.33,0,0,1-17.24-1.38l-4.88-4.89a13.28,13.28,0,0,1-3.92-9.5,13,13,0,0,1,3.84-9.24,13.1,13.1,0,0,1,8.83-3.78,7.77,7.77,0,0,0,6.77-4.51,8.37,8.37,0,0,1,7.63-4.92h0a8.63,8.63,0,0,1,5.9,2.31l-6.52,6.28a1.63,1.63,0,0,0-.5,1.17,1.67,1.67,0,0,0,.48,1.18l3.35,3.35a1.63,1.63,0,0,0,1.16.48h0a1.66,1.66,0,0,0,1.17-.51l6.29-6.52a8.67,8.67,0,0,1,2.3,5.95,8.32,8.32,0,0,1-2.51,6,8.45,8.45,0,0,1-2.4,1.66A7.76,7.76,0,0,0,253.3,159a13,13,0,0,1-2.49,7.3,1,1,0,0,0,.22,1.38,1,1,0,0,0,.58.18,1,1,0,0,0,.79-.4,15.11,15.11,0,0,0,2.87-8.4,5.76,5.76,0,0,1,3.35-5,10.36,10.36,0,0,0,6.07-9.41,10.63,10.63,0,0,0-2.91-7.38l15.15-15.71h.15a1.7,1.7,0,0,0,1.07-.37l1.34-1,.56.55a1,1,0,0,0,1.39,0,1,1,0,0,0,0-1.39l-.39-.39,1.09-.85.69.69a1,1,0,0,0,.7.29.94.94,0,0,0,.69-.29,1,1,0,0,0,0-1.39l-.52-.52,1.09-.85.68.68a1,1,0,0,0,.7.29.94.94,0,0,0,.69-.29,1,1,0,0,0,0-1.39Zm-11.6,5.17-2,2.1-2.12-2.11,2.11-2Zm-5,5.18L268,123.35l1.66-1.6,2.17,2.16Zm-3.41,3.54-2.35-2.35,2.12-2.05,2.27,2.28Zm-3.41,3.54L261,130.16l2.12-2,2.4,2.41Zm-6.87,7.13L253.83,137,256,135l2.66,2.66Zm3.44-3.57-2.62-2.61,2.15-2.07,2.54,2.53ZM253,143.54l-2.88-2.88,2.34-2.26,2.79,2.8Z"/><path class="cls-3" d="M239,160.3a1,1,0,0,0,.7-.29,1,1,0,0,0,0-1.39L235,153.91a1,1,0,0,0-1.39,1.39l4.71,4.71a1,1,0,0,0,.69.29Z"/><path class="cls-3" d="M230.93,156.58a1,1,0,0,0,0,1.39l4.71,4.71a1,1,0,0,0,.69.29,1,1,0,0,0,.7-.29,1,1,0,0,0,0-1.39l-4.71-4.71A1,1,0,0,0,230.93,156.58Z"/><path class="cls-3" d="M280.17,112.05l-1.61,1.6a1,1,0,0,0,0,1.39,1,1,0,0,0,.7.29A.94.94,0,0,0,280,115l1.61-1.6a1,1,0,0,0,0-1.39A1,1,0,0,0,280.17,112.05Z"/><path class="cls-3" d="M266.41,264.84h-5.52v-8.1a1.31,1.31,0,0,0-.68-1.15l-5-2.81h0l-.81-.45c-2-1.12-5.3-2.89-6.52-6H259l5.71,5.62c.37.37.37.37.36,1.31v2.54a1.32,1.32,0,1,0,2.64,0v-2.07c0-.16,0-.31,0-.44a3.65,3.65,0,0,0-1.15-3.22l-5.7-5.62v-4.41h3.4c1.52,0,2.63,0,3.9-1.75v0L272.6,232a4.26,4.26,0,0,0,.71-3.25,4.4,4.4,0,0,0-1.82-2.84,4.35,4.35,0,0,0-3.27-.69,4.3,4.3,0,0,0-2.79,1.82l-2.79,4.06H260.3l-2.87-4.52a9.67,9.67,0,0,0,3.05-13.8,5.69,5.69,0,0,0,1-1.32,5.45,5.45,0,0,0-.28-5.45,1.33,1.33,0,0,0-1.76-.56,12.81,12.81,0,0,1-6.32,1.41h-1.27a9.78,9.78,0,0,0-3.4.46c-3.35,1.19-8.46,4.68-5.19,14.71h0v0a.69.69,0,0,0,0,.1h0a9.86,9.86,0,0,0,3.32,4.32l-1.81,2.62-7.76,2.66a4.39,4.39,0,0,0-3,4v1.49h-7.56a1.33,1.33,0,0,0,0,2.65h7.56v3.87a4.38,4.38,0,0,0,4.39,4.36h0a4.37,4.37,0,0,0,4.34-4.39V239l.74-.26,1.24,6.28-1,5.35h-7.52a1.33,1.33,0,0,0,0,2.65h7l-.24,1.27L236,256.67h0l-4.56,1.68a1.34,1.34,0,0,0-.75.69,1.36,1.36,0,0,0,0,1l3.92,10.6a1.35,1.35,0,0,0,.79.78,1.19,1.19,0,0,0,.45.08,1.24,1.24,0,0,0,.65-.17c2.56-1.44,4.14-3.8,4.07-5.88l10.31-3.56a4.07,4.07,0,0,0,2.55-2.27l1.86-3.86,2.26,1.31a2.15,2.15,0,0,0,.32.13l.51.28v8.65h0l0,5a1.33,1.33,0,0,0,.39.94,1.35,1.35,0,0,0,.94.38h11.65a1.32,1.32,0,0,0,1.26-.93,4.16,4.16,0,0,0-.72-3.8A7.73,7.73,0,0,0,266.41,264.84Zm-3.08-31.09a1.32,1.32,0,0,0,1.1-.57l3.18-4.65a1.72,1.72,0,0,1,2.38-.44,1.74,1.74,0,0,1,.72,1.13,1.68,1.68,0,0,1-.27,1.26L266,236.75c-.47.65-.48.65-1.76.66h-3.38v-3.67Zm-3.8-15.45a7.39,7.39,0,0,1-10.36,6.58l-.12-.06a6.59,6.59,0,0,1-3.07-3.23c.59-1.38,2.56-5.37,5.74-5.61a19,19,0,0,0,6.59-1.7A7.26,7.26,0,0,1,259.53,218.3Zm-14.27-4.69a6.11,6.11,0,0,1,4.09-3.82,7.55,7.55,0,0,1,2.52-.31h1.27a15.84,15.84,0,0,0,6.21-1.1,2.37,2.37,0,0,1-.17,1.79c-1,1.85-4.68,2.94-7.66,3.16s-5.2,2.47-6.53,4.49A9.28,9.28,0,0,1,245.26,213.61ZM241.1,236.8a1.31,1.31,0,0,0-.89,1.26l0,5.64a1.72,1.72,0,0,1-1.71,1.73h0a1.74,1.74,0,0,1-1.74-1.71v-7.94a1.75,1.75,0,0,1,1.15-1.54l8-2.73a1.71,1.71,0,0,1,2.17,1.08,1.73,1.73,0,0,1-1.06,2.19Zm6.77.48a4.37,4.37,0,0,0,.19-8.2l1-1.42a11,11,0,0,0,3.33.49,8.51,8.51,0,0,0,2.65-.44l3.23,5.08v5.94h0v5h-11l-1.15-5.81Zm-11.5,30.85-2.87-7.74,2.1-.77,2.14,5.59C238,265.82,237.57,267,236.37,268.13Zm14.54-9.63a1.42,1.42,0,0,1-1,.92l-10.18,3.52-1.6-4.2,6.53-2.18a1.35,1.35,0,0,0,.88-1l1.16-6a18.09,18.09,0,0,0,6.18,4.94Zm10,11.31v-2.32h5.52a5.24,5.24,0,0,1,3.22,1.81,2.25,2.25,0,0,1,.29.51Z"/><path class="cls-3" d="M231.36,253a1.32,1.32,0,1,0,0-2.64h0a1.32,1.32,0,0,0,0,2.64Z"/><path class="cls-3" d="M221.35,237.2h0a1.33,1.33,0,0,0,0,2.65h0a1.33,1.33,0,1,0,0-2.65Z"/><path class="cls-3" d="M266.41,259.57a1.33,1.33,0,0,0-1.33,1.32v0a1.33,1.33,0,0,0,2.65,0v0A1.32,1.32,0,0,0,266.41,259.57Z"/></svg>