<svg id="Layer_1" data-name="Layer 1" xmlns="http://www.w3.org/2000/svg" viewBox="0 0 378.75 366.06"><defs><style>.cls-1,.cls-2{fill:#1f2129;}.cls-2{stroke:#56a099;stroke-miterlimit:10;}.cls-3{fill:#fff;}</style></defs><rect class="cls-1" width="378.75" height="366.06"/><circle class="cls-2" cx="91.46" cy="95.5" r="64.96"/><circle class="cls-2" cx="276.15" cy="95.5" r="64.96"/><circle class="cls-2" cx="91.46" cy="265.01" r="64.96"/><circle class="cls-2" cx="275.22" cy="265.01" r="64.96"/><path class="cls-3" d="M158.42,318.26h-2.89a17.43,17.43,0,0,1,0-14.18h2.89a5.85,5.85,0,1,0,0-11.7H146.78a9.61,9.61,0,0,0,2.38-6.33V267.7a9.63,9.63,0,0,0-9.62-9.62H134.8a5.8,5.8,0,0,0,.63-2.66,6,6,0,0,0-6-6h-1.63a13.63,13.63,0,0,1,0-10.67h1.63a6,6,0,0,0,0-11.92H73.93A17.25,17.25,0,0,0,63.8,258.08H62.53a5.86,5.86,0,1,0,0,11.71h2.89a17.4,17.4,0,0,1,0,14.17H62.53a5.85,5.85,0,0,0-4.82,9.18A9.65,9.65,0,0,0,51.85,302v18.34A9.63,9.63,0,0,0,61.47,330h96.95a5.85,5.85,0,1,0,0-11.7Zm0-22.59a2.56,2.56,0,1,1,0,5.12H128.7a1.65,1.65,0,0,0,0,3.29H152a21.25,21.25,0,0,0-1.19,5.44s-.66,3.26,1.19,8.74H64a.49.49,0,0,1-.48-.48V304.56a.49.49,0,0,1,.48-.48H80.35v5.41a2.21,2.21,0,0,0,3.92,1.83l0,0,4.6-4.39,4.61,4.39,0,0a2.79,2.79,0,0,0,1.89.86,2,2,0,0,0,.87-.2,2.33,2.33,0,0,0,1.16-2.49v-5.41h23.14a1.65,1.65,0,1,0,0-3.29H97.45v-5.12ZM70.14,275.23A21.58,21.58,0,0,0,69,269.79h68a.48.48,0,0,1,.47.48v13.21a.48.48,0,0,1-.47.48H97.46v-5.44H109a1.65,1.65,0,1,0,0-3.29ZM80.35,284H68.94a21.18,21.18,0,0,0,1.2-5.44H80.35Zm13.82-5.44v28.85L90,303.44a1.64,1.64,0,0,0-2.27,0l-4.12,3.93V278.52ZM60,244.12a14,14,0,0,1,14-14h55.55a2.66,2.66,0,0,1,0,5.32H99.12a1.65,1.65,0,1,0,0,3.3h25.22a16.79,16.79,0,0,0,0,10.67H73.93a5.34,5.34,0,1,1,0-10.67H91a1.65,1.65,0,0,0,0-3.3H73.93a8.63,8.63,0,0,0,0,17.26h55.55a2.67,2.67,0,0,1,0,5.33H73.93a14,14,0,0,1-14-14Zm2.56,22.38a2.57,2.57,0,0,1,0-5.13h77a6.34,6.34,0,0,1,6.33,6.33v18.35a6.34,6.34,0,0,1-6.33,6.33H97.46v-5.13H137a3.77,3.77,0,0,0,3.77-3.77V270.27A3.77,3.77,0,0,0,137,266.5Zm0,20.75H80.35v5.13H62.53a2.57,2.57,0,0,1,0-5.13Zm95.89,39.42H61.47a6.33,6.33,0,0,1-6.32-6.33V302a6.33,6.33,0,0,1,6.32-6.33H80.35v5.12H64a3.77,3.77,0,0,0-3.77,3.77v13.22A3.77,3.77,0,0,0,64,321.55h94.38a2.56,2.56,0,1,1,0,5.12Z"/><path class="cls-3" d="M156,61.37h-5.76a1.65,1.65,0,1,0,0,3.29H156A4.94,4.94,0,0,1,161,69.6v7.58H55.15V69.6a4.94,4.94,0,0,1,4.94-4.94h83a1.65,1.65,0,0,0,0-3.29h-83a8.25,8.25,0,0,0-8.24,8.23V87.76a1.65,1.65,0,0,0,3.3,0V80.47H161v42.46a1.65,1.65,0,1,0,3.3,0V69.6A8.25,8.25,0,0,0,156,61.37Z"/><path class="cls-3" d="M162.63,128.23a1.65,1.65,0,0,0-1.65,1.65v4.28A4.94,4.94,0,0,1,156,139.1H60.09a4.94,4.94,0,0,1-4.94-4.94V94.82a1.65,1.65,0,0,0-3.3,0v39.34a8.25,8.25,0,0,0,8.24,8.23H156a8.25,8.25,0,0,0,8.24-8.23v-4.28A1.65,1.65,0,0,0,162.63,128.23Z"/><path class="cls-3" d="M75.67,97.15a1.64,1.64,0,0,0-2.32,0l-9.9,9.9a1.63,1.63,0,0,0-.48,1.16,1.65,1.65,0,0,0,.48,1.17l9.76,9.76a1.68,1.68,0,0,0,1.17.48,1.65,1.65,0,0,0,1.16-2.81l-8.6-8.6,8.73-8.73a1.64,1.64,0,0,0,0-2.33Z"/><path class="cls-3" d="M97.82,119.14a1.65,1.65,0,0,0,2.33,0l9.77-9.76a1.69,1.69,0,0,0,.48-1.17,1.67,1.67,0,0,0-.48-1.16l-9.9-9.9a1.65,1.65,0,1,0-2.33,2.33l8.73,8.73-8.6,8.6a1.65,1.65,0,0,0,0,2.33Z"/><path class="cls-3" d="M80.84,125.21a1.66,1.66,0,0,0,1.54-1.07l11.7-30.82A1.65,1.65,0,1,0,91,92.15L79.3,123a1.63,1.63,0,0,0,1,2.12,1.71,1.71,0,0,0,.59.11Z"/><path class="cls-3" d="M59.1,71A4.94,4.94,0,1,0,64,66.06,4.94,4.94,0,0,0,59.1,71Zm6.59,0A1.65,1.65,0,1,1,64,69.35,1.65,1.65,0,0,1,65.69,71Z"/><path class="cls-3" d="M71.87,71a4.94,4.94,0,1,0,4.94-4.94A4.94,4.94,0,0,0,71.87,71Zm6.59,0a1.65,1.65,0,1,1-1.65-1.65A1.65,1.65,0,0,1,78.46,71Z"/><path class="cls-3" d="M84.64,71a4.94,4.94,0,1,0,4.94-4.94A4.94,4.94,0,0,0,84.64,71Zm6.59,0a1.65,1.65,0,1,1-1.65-1.65A1.65,1.65,0,0,1,91.23,71Z"/><path class="cls-3" d="M125.52,98.89h10.32a4.94,4.94,0,0,0,0-9.88H125.52a4.94,4.94,0,0,0,0,9.88Zm0-6.59h10.32a1.65,1.65,0,1,1,0,3.29H125.52a1.65,1.65,0,0,1,0-3.29Z"/><path class="cls-3" d="M125.52,112.06h27.23a4.94,4.94,0,0,0,0-9.88H125.52a4.94,4.94,0,1,0,0,9.88Zm0-6.59h27.23a1.65,1.65,0,1,1,0,3.3H125.52a1.65,1.65,0,0,1,0-3.3Z"/><path class="cls-3" d="M125.52,125.24h19.14a4.94,4.94,0,0,0,0-9.88H125.52a4.94,4.94,0,0,0,0,9.88Zm0-6.59h19.14a1.65,1.65,0,1,1,0,3.29H125.52a1.65,1.65,0,0,1,0-3.29Z"/><path class="cls-3" d="M288.91,131.32a10.71,10.71,0,0,0-3.3-17.38,1.65,1.65,0,1,0-1.31,3,7.58,7.58,0,0,1,2.28,1.56,7.41,7.41,0,0,1,0,10.47,7.4,7.4,0,1,1-10.46-10.47,7.17,7.17,0,0,1,2.31-1.57,1.65,1.65,0,0,0-1.3-3,10.75,10.75,0,0,0-3.34,2.27,10.69,10.69,0,1,0,15.12,15.13Z"/><path class="cls-3" d="M352.56,66.74l-.92-.93a4.25,4.25,0,0,0-.24-5.76l-.72-.72a1.65,1.65,0,1,0-2.33,2.33l.72.72a1,1,0,0,1,.29.74,1,1,0,0,1-.37.7l-12.78,10-4.92-4.93,10-12.78a1,1,0,0,1,.7-.36.94.94,0,0,1,.74.28l.56.56a1.65,1.65,0,0,0,2.33,0,1.64,1.64,0,0,0,0-2.33l-.56-.56a4.28,4.28,0,0,0-3.27-1.24,4.21,4.21,0,0,0-2.49,1l-.93-.93A1.65,1.65,0,0,0,336,54.87L337.18,56l-1.43,1.82-.87-.88a1.65,1.65,0,0,0-2.33,2.33l1.16,1.16-1.43,1.82-.65-.65A1.65,1.65,0,0,0,329.3,64l.94.93-1.76,2.25a2.89,2.89,0,0,0-.6,2L301.56,94.53a17.75,17.75,0,0,0-12.25-4.86h-.09a17.26,17.26,0,0,0-12.34,5.18,17.6,17.6,0,0,0-3.41,5,9.67,9.67,0,0,1-8.43,5.62,25.13,25.13,0,0,0-24.42,25.08,25.53,25.53,0,0,0,7.53,18.26l8.18,8.17a25.74,25.74,0,0,0,16.22,7.46c.65.05,1.3.07,1.95.07a25.2,25.2,0,0,0,15-4.9,1.65,1.65,0,1,0-2-2.65,22.29,22.29,0,0,1-28.85-2.31l-8.18-8.17a22.33,22.33,0,0,1-6.57-15.92,21.85,21.85,0,0,1,21.23-21.8,13,13,0,0,0,11.32-7.54,14.27,14.27,0,0,1,2.77-4,14,14,0,0,1,10-4.2h.08a14.5,14.5,0,0,1,9.88,3.86l-10.92,10.52a2.77,2.77,0,0,0-.84,2,2.69,2.69,0,0,0,.81,2l5.6,5.61a2.72,2.72,0,0,0,1.94.8h0a2.67,2.67,0,0,0,1.95-.84l10.52-10.92a14.51,14.51,0,0,1,3.86,10,14.05,14.05,0,0,1-8.23,12.77A13,13,0,0,0,296.37,140a21.85,21.85,0,0,1-4.17,12.23,1.65,1.65,0,0,0,2.67,1.93,25.12,25.12,0,0,0,4.79-14.06,9.67,9.67,0,0,1,5.62-8.42,17.38,17.38,0,0,0,10.16-15.75,17.8,17.8,0,0,0-4.87-12.35l25.36-26.31h.25a3,3,0,0,0,1.8-.62l2.24-1.75.93.93a1.66,1.66,0,0,0,1.17.48,1.65,1.65,0,0,0,1.16-2.81l-.65-.65,1.82-1.43,1.16,1.16a1.65,1.65,0,0,0,2.33,0,1.65,1.65,0,0,0,0-2.33l-.88-.87,1.83-1.43,1.14,1.15a1.65,1.65,0,0,0,2.33-2.33Zm-19.43,8.65-3.4,3.52-3.54-3.53,3.53-3.4Zm-8.37,8.68L321,80.34l2.79-2.68,3.62,3.63ZM319.05,90l-3.94-3.94,3.55-3.42,3.81,3.81Zm-5.7,5.92-4.15-4.16,3.54-3.42,4,4Zm-11.51,11.94-4.59-4.59,3.6-3.47,4.46,4.46Zm5.76-6-4.38-4.37,3.6-3.47,4.24,4.24Zm-11.82,12.26L291,109.33l3.92-3.78,4.67,4.67Z"/><path class="cls-3" d="M272.43,142.2a1.65,1.65,0,0,0,1.17-2.81l-7.89-7.88a1.64,1.64,0,1,0-2.32,2.32l7.88,7.89a1.64,1.64,0,0,0,1.16.48Z"/><path class="cls-3" d="M258.92,136a1.64,1.64,0,0,0,0,2.33l7.88,7.89a1.65,1.65,0,0,0,2.33,0,1.65,1.65,0,0,0,0-2.33L261.25,136A1.65,1.65,0,0,0,258.92,136Z"/><path class="cls-3" d="M341.35,61.42l-2.69,2.69A1.65,1.65,0,1,0,341,66.44l2.69-2.69a1.65,1.65,0,0,0-2.33-2.33Z"/><path class="cls-3" d="M318.31,317.22h-9.23V303.65a2.21,2.21,0,0,0-1.13-1.93L299.6,297h0c-.4-.24-.87-.49-1.36-.76-3.43-1.87-8.87-4.84-10.91-10h18.6l9.56,9.42c.62.61.62.61.6,2.19v4.26a2.22,2.22,0,0,0,4.43,0v-4.22c0-2,0-3.46-1.92-5.39l-9.55-9.4,0-7.38h5.68c2.55,0,4.4,0,6.52-2.94l0,0,7.38-10.51a7.3,7.3,0,1,0-12-8.31L312,260.74l-3.92,0-4.81-7.58a16.2,16.2,0,0,0,5.12-23.09,9.7,9.7,0,0,0,1.7-2.22c1-1.87,1.77-5-.47-9.13a2.22,2.22,0,0,0-2.94-.93,21.44,21.44,0,0,1-10.59,2.36H294a16.67,16.67,0,0,0-5.7.77c-5.6,2-14.17,7.83-8.68,24.62h0v0a1.11,1.11,0,0,0,.07.16h0a16.54,16.54,0,0,0,5.56,7.24l-3,4.38-13,4.45a7.34,7.34,0,0,0-4.93,6.65V271H251.62a2.22,2.22,0,1,0,0,4.43h12.66v6.48a7.32,7.32,0,0,0,7.34,7.29h0a7.3,7.3,0,0,0,7.26-7.34l0-7.86,1.26-.43L282.21,284l-1.72,9h-12.6a2.22,2.22,0,0,0,0,4.43h11.74l-.41,2.14-11.9,4,0,0h0l-7.63,2.82a2.27,2.27,0,0,0-1.25,1.15,2.23,2.23,0,0,0-.06,1.7L264.87,327a2.18,2.18,0,0,0,2.08,1.44,2.18,2.18,0,0,0,1.08-.28c4.29-2.41,6.92-6.36,6.82-9.86l17.24-6a6.72,6.72,0,0,0,4.27-3.79l3.12-6.47,3.79,2.19a2.45,2.45,0,0,0,.54.22l.85.48v14.47h0l0,8.32a2.19,2.19,0,0,0,.65,1.57,2.17,2.17,0,0,0,1.56.65h19.51a2.2,2.2,0,0,0,2.12-1.57,6.92,6.92,0,0,0-1.21-6.35A12.93,12.93,0,0,0,318.31,317.22Zm-5.15-52.05a2.23,2.23,0,0,0,1.84-1l5.32-7.78a2.87,2.87,0,0,1,4-.74,2.89,2.89,0,0,1,1.21,1.89,2.74,2.74,0,0,1-.45,2.11l-7.38,10.5c-.79,1.09-.8,1.09-2.94,1.1h-5.67v-6.14Zm-6.36-25.86c0,6.79-6.45,12.05-12,12.05a12.65,12.65,0,0,1-5.35-1.05l-.19-.09a11,11,0,0,1-5.14-5.41c1-2.31,4.29-9,9.61-9.39a32.17,32.17,0,0,0,11-2.84A12,12,0,0,1,306.8,239.31Zm-23.89-7.85c1-3,3.27-5.13,6.85-6.4a12.33,12.33,0,0,1,4.22-.52h2.12a26.38,26.38,0,0,0,10.4-1.85,4,4,0,0,1-.29,3c-1.69,3.09-7.83,4.91-12.82,5.29s-8.7,4.13-10.92,7.51A15.32,15.32,0,0,1,282.91,231.46Zm-7,38.82a2.22,2.22,0,0,0-1.5,2.1l0,9.44a2.9,2.9,0,0,1-2.86,2.91h0a2.93,2.93,0,0,1-2.91-2.87V273.4a1.93,1.93,0,0,0,0-.24,1.85,1.85,0,0,0,0-.23v-4.36a2.91,2.91,0,0,1,1.93-2.58L284,261.42a2.81,2.81,0,0,1,.91-.16,2.9,2.9,0,0,1,.94,5.63Zm11.33.8a7.32,7.32,0,0,0,.31-13.73l1.65-2.38a18.31,18.31,0,0,0,5.56.82,14.46,14.46,0,0,0,4.46-.73l5.4,8.51,0,9.94h0v8.3H286.29l-1.93-9.73ZM268,322.73l-4.79-13,3.51-1.29,3.58,9.35C270.71,318.85,270,320.9,268,322.73Zm24.36-16.12a2.45,2.45,0,0,1-1.74,1.53l-17,5.89-2.68-7,10.94-3.66a2.24,2.24,0,0,0,1.47-1.69l1.93-10.05c3,4.1,7.36,6.63,10.35,8.27Zm16.68,18.92,0-3.89h9.23a8.75,8.75,0,0,1,5.39,3,3.46,3.46,0,0,1,.49.85Z"/><path class="cls-3" d="M259.65,297.36a2.22,2.22,0,0,0,0-4.43h-.06a2.22,2.22,0,0,0,0,4.43Z"/><path class="cls-3" d="M242.89,271h-.06a2.22,2.22,0,0,0,0,4.43h.06a2.22,2.22,0,0,0,0-4.43Z"/><path class="cls-3" d="M318.31,308.39a2.21,2.21,0,0,0-2.21,2.22v.05a2.21,2.21,0,1,0,4.42,0v-.05A2.21,2.21,0,0,0,318.31,308.39Z"/></svg>