<svg id="Layer_1" data-name="Layer 1" xmlns="http://www.w3.org/2000/svg" viewBox="0 0 378.75 449.83"><defs><style>.cls-1{fill:#1f2129;}.cls-2,.cls-6{font-size:13.52px;font-family:WorkSans-Regular, Work Sans;}.cls-2{fill:#56a099;}.cls-3{letter-spacing:-0.01em;}.cls-4{letter-spacing:-0.02em;}.cls-5{letter-spacing:-0.06em;}.cls-6{fill:#fff;}.cls-7{letter-spacing:-0.09em;}.cls-8{letter-spacing:0em;}.cls-9{letter-spacing:-0.03em;}.cls-10{font-family:WorkSans-SemiBold, Work Sans;font-weight:600;}.cls-11{letter-spacing:-0.02em;}.cls-12{letter-spacing:-0.01em;}.cls-13{letter-spacing:-0.06em;}.cls-14{letter-spacing:-0.01em;}.cls-15{letter-spacing:-0.02em;}.cls-16{letter-spacing:-0.01em;}.cls-17{letter-spacing:0em;}.cls-18{letter-spacing:-0.09em;}.cls-19{letter-spacing:-0.03em;}.cls-20{letter-spacing:-0.06em;}.cls-21{letter-spacing:-0.01em;}.cls-22{letter-spacing:-0.02em;}.cls-23{letter-spacing:-0.03em;}.cls-24{letter-spacing:-0.01em;}.cls-25{letter-spacing:-0.02em;}.cls-26{letter-spacing:-0.02em;}.cls-27{letter-spacing:-0.02em;}.cls-28{letter-spacing:-0.03em;}.cls-29{letter-spacing:-0.02em;}.cls-30{letter-spacing:-0.05em;}</style></defs><rect class="cls-1" width="378.75" height="449.83"/><text class="cls-2" transform="translate(26.86 50.89) scale(0.97 1)">201<tspan class="cls-3" x="21.82" y="0">9</tspan><tspan x="30.05" y="0">/NU</tspan><tspan x="0" y="54.08">2018/19</tspan><tspan x="0" y="108.16">2016/18</tspan><tspan x="0" y="162.24">2014/16</tspan><tspan x="0" y="216.31">2012/14</tspan><tspan x="0" y="270.39">2008/18</tspan><tspan x="0" y="324.47">20</tspan><tspan class="cls-4" x="16.29" y="324.47">0</tspan><tspan class="cls-5" x="24.43" y="324.47">7</tspan><tspan x="31.24" y="324.47">/18</tspan><tspan x="0" y="342.5" xml:space="preserve">         </tspan></text><text class="cls-6" transform="translate(100.74 50.89) scale(0.97 1)">HOGEN<tspan class="cls-7" x="48.37" y="0">T</tspan><tspan class="cls-8" x="55.27" y="0">, GEN</tspan><tspan class="cls-9" x="91.81" y="0">T</tspan><tspan class="cls-10"><tspan class="cls-11" x="0" y="18.03">T</tspan><tspan x="8.25" y="18.03">O</tspan><tspan class="cls-12" x="18.26" y="18.03">E</tspan><tspan x="26.7" y="18.03">GE</tspan><tspan class="cls-13" x="45.03" y="18.03">P</tspan><tspan class="cls-14" x="52.96" y="18.03">A</tspan><tspan class="cls-15" x="61.96" y="18.03">S</tspan><tspan x="70.4" y="18.03">TE IN</tspan><tspan class="cls-16" x="105.86" y="18.03">F</tspan><tspan class="cls-17" x="114.04" y="18.03">ORM</tspan><tspan class="cls-18" x="145.28" y="18.03">A</tspan><tspan x="153.15" y="18.03">TIC</tspan><tspan class="cls-19" x="175.16" y="18.03">A</tspan></tspan><tspan x="0" y="54.08">UGEN</tspan><tspan class="cls-7" x="38.07" y="54.08">T</tspan><tspan x="44.97" y="54.08">, GEN</tspan><tspan class="cls-9" x="81.51" y="54.08">T</tspan><tspan class="cls-10"><tspan class="cls-18" x="0" y="72.1">T</tspan><tspan x="7.38" y="72.1">AA</tspan><tspan class="cls-20" x="25.53" y="72.1">L</tspan><tspan x="32.8" y="72.1">- EN LETTERKUNDE</tspan></tspan><tspan x="0" y="108.16">BISCHOPPELIJ</tspan><tspan class="cls-21" x="95.66" y="108.16">K</tspan><tspan class="cls-17" x="104.36" y="108.16" xml:space="preserve"> COLL</tspan><tspan class="cls-22" x="144.52" y="108.16">E</tspan><tspan x="152.94" y="108.16">GE,</tspan><tspan class="cls-23" x="174.96" y="108.16"> </tspan><tspan x="179.11" y="108.16">VEURNE</tspan><tspan class="cls-10"><tspan class="cls-24" x="0" y="126.18">E</tspan><tspan x="8.44" y="126.18">CONOMIE</tspan><tspan class="cls-25" x="72.48" y="126.18"> </tspan><tspan class="cls-17" x="76.35" y="126.18">WISKUNDE</tspan></tspan><tspan x="0" y="162.24">BISCHOPPELIJ</tspan><tspan class="cls-21" x="95.66" y="162.24">K</tspan><tspan class="cls-17" x="104.36" y="162.24" xml:space="preserve"> COLL</tspan><tspan class="cls-22" x="144.52" y="162.24">E</tspan><tspan x="152.94" y="162.24">GE,</tspan><tspan class="cls-23" x="174.96" y="162.24"> </tspan><tspan x="179.11" y="162.24">VEURNE</tspan><tspan class="cls-10"><tspan x="0" y="180.26">WETENSCHAPPEN</tspan></tspan><tspan x="0" y="216.31">BISCHOPPELIJ</tspan><tspan class="cls-21" x="95.66" y="216.31">K</tspan><tspan class="cls-17" x="104.36" y="216.31" xml:space="preserve"> COLL</tspan><tspan class="cls-22" x="144.52" y="216.31">E</tspan><tspan x="152.94" y="216.31">GE,</tspan><tspan class="cls-23" x="174.96" y="216.31"> </tspan><tspan x="179.11" y="216.31">VEURNE</tspan><tspan class="cls-10"><tspan x="0" y="234.34">L</tspan><tspan class="cls-18" x="8.13" y="234.34">A</tspan><tspan x="15.99" y="234.34">TIJN</tspan></tspan><tspan class="cls-26" x="0" y="270.39">A</tspan><tspan x="8.63" y="270.39">CADEMIE</tspan><tspan class="cls-23" x="69.37" y="270.39"> </tspan><tspan class="cls-27" x="73.52" y="270.39">V</tspan><tspan x="82.06" y="270.39">OOR PODIUMKUN</tspan><tspan class="cls-28" x="197.8" y="270.39">S</tspan><tspan class="cls-7" x="206.06" y="270.39">T</tspan><tspan x="212.96" y="270.39">,</tspan><tspan class="cls-23" x="216.55" y="270.39"> </tspan><tspan x="220.7" y="270.39">VEURNE</tspan><tspan class="cls-10"><tspan x="0" y="288.42">GI</tspan><tspan class="cls-18" x="13.97" y="288.42">T</tspan><tspan x="21.35" y="288.42">AAR</tspan></tspan><tspan x="0" y="324.47">TURNC</tspan><tspan class="cls-29" x="46.09" y="324.47">L</tspan><tspan x="53.96" y="324.47">UB ZEE</tspan><tspan class="cls-28" x="102.9" y="324.47">S</tspan><tspan x="111.16" y="324.47">TERN, DE </tspan><tspan class="cls-30" x="178.05" y="324.47">P</tspan><tspan class="cls-8" x="185.65" y="324.47">ANNE</tspan><tspan class="cls-10"><tspan x="0" y="342.5">TUMBLING</tspan></tspan></text></svg>