<svg id="Layer_1" data-name="Layer 1" xmlns="http://www.w3.org/2000/svg" viewBox="0 0 378.75 366.06"><defs><style>.cls-1,.cls-2{fill:#1f2129;}.cls-2{stroke:#56a099;stroke-miterlimit:10;}.cls-3{fill:#56a099;}.cls-4{font-size:16.29px;fill:#fff;font-family:WorkSans-Regular, Work Sans;}.cls-5{letter-spacing:-0.02em;}.cls-6{letter-spacing:-0.02em;}.cls-7{letter-spacing:-0.01em;}.cls-8{letter-spacing:-0.02em;}.cls-9{letter-spacing:0em;}.cls-10{letter-spacing:-0.01em;}.cls-11{letter-spacing:-0.04em;}</style></defs><rect class="cls-1" width="378.75" height="366.06"/><rect class="cls-2" x="38.31" y="85.2" width="205.26" height="14.18" rx="7.09" transform="translate(281.88 184.57) rotate(180)"/><rect class="cls-3" x="38.31" y="85.2" width="186.96" height="14.18" rx="6.96" transform="translate(263.58 184.57) rotate(-180)"/><rect class="cls-2" x="38.31" y="120.48" width="205.26" height="14.18" rx="7.09" transform="translate(281.88 255.14) rotate(180)"/><rect class="cls-2" x="38.31" y="156.61" width="205.26" height="14.18" rx="7.09" transform="translate(281.88 327.39) rotate(-180)"/><rect class="cls-2" x="38.31" y="195.3" width="205.26" height="14.18" rx="7.09" transform="translate(281.88 404.78) rotate(-180)"/><rect class="cls-2" x="38.31" y="231.17" width="205.26" height="14.18" rx="7.09" transform="translate(281.88 476.51) rotate(-180)"/><rect class="cls-2" x="38.31" y="267.58" width="205.26" height="14.66" rx="7.33" transform="translate(281.88 549.82) rotate(-180)"/><rect class="cls-3" x="38.31" y="119.64" width="176" height="15.02" rx="7.3" transform="translate(252.62 254.3) rotate(-180)"/><rect class="cls-3" x="38.31" y="155.76" width="176" height="15.02" rx="7.3" transform="translate(252.62 326.55) rotate(-180)"/><rect class="cls-3" x="38.31" y="195.3" width="175.8" height="14.18" rx="7.09" transform="translate(252.42 404.78) rotate(-180)"/><rect class="cls-3" x="38.31" y="231.17" width="134.78" height="14.18" rx="7.09" transform="translate(211.4 476.51) rotate(-180)"/><rect class="cls-3" x="38.31" y="267.58" width="77.74" height="14.66" rx="7.33" transform="translate(154.37 549.82) rotate(-180)"/><text class="cls-4" transform="translate(262.71 96.53) scale(0.97 1)"><tspan class="cls-5">J<tspan class="cls-6" x="8.93" y="0">a</tspan><tspan class="cls-7" x="17.87" y="0">v</tspan><tspan class="cls-8" x="26.13" y="0">a</tspan></tspan><tspan class="cls-5" x="0" y="36.21">J</tspan><tspan class="cls-6" x="8.93" y="36.21">a</tspan><tspan class="cls-7" x="17.87" y="36.21">v</tspan><tspan class="cls-9" x="26.13" y="36.21">ascri</tspan><tspan class="cls-10" x="64.11" y="36.21">p</tspan><tspan x="74.23" y="36.21">t</tspan><tspan x="0" y="72.41">Htm</tspan><tspan class="cls-11" x="34.31" y="72.41">l</tspan><tspan x="0" y="108.61">Css</tspan><tspan x="0" y="144.82">C#</tspan><tspan x="0" y="181.02">Angula</tspan><tspan class="cls-8" x="54.07" y="181.02">r</tspan></text></svg>