<svg id="Layer_1" data-name="Layer 1" xmlns="http://www.w3.org/2000/svg" viewBox="0 0 378.75 366.06"><defs><style>.cls-1{fill:#1f2129;}.cls-2{fill:#56a099;}.cls-3{font-size:13.35px;fill:#fff;font-family:WorkSans-Regular, Work Sans;}.cls-4{letter-spacing:-0.03em;}</style></defs><rect class="cls-1" width="378.75" height="366.06"/><circle class="cls-1" cx="189.38" cy="184.12" r="25.26"/><circle class="cls-1" cx="187.87" cy="257.82" r="25.26"/><circle class="cls-1" cx="189.38" cy="108.25" r="25.26"/><path class="cls-2" d="M188.17,229.54v6a22.24,22.24,0,1,1-19.09,34.1,46.71,46.71,0,0,1-4.76,3.75,28.27,28.27,0,1,0,23.85-43.89Z"/><path class="cls-2" d="M189.38,80h-.48c0,.29-.05.58-.07.87.08,1.72.2,3.44.21,5.16h.34a22.31,22.31,0,1,1-9.87,2.33c-.09-.29-.16-.57-.25-.85a19.93,19.93,0,0,1-2.47-4.55,28.28,28.28,0,1,0,12.59-3Z"/><path class="cls-2" d="M189.38,155.84l-.48,0c0,.28-.05.57-.07.86.08,1.73.2,3.45.21,5.17h.34a22.31,22.31,0,1,1-9.87,2.33c-.09-.29-.16-.57-.25-.86a19.66,19.66,0,0,1-2.47-4.54,28.26,28.26,0,1,0,12.59-3Z"/><text class="cls-3" transform="matrix(0.97, -0.01, 0.01, 1, 182.16, 112.93)">N<tspan class="cls-4" x="9.8" y="0">L</tspan></text><text class="cls-3" transform="matrix(0.97, -0.01, 0.01, 1, 175.67, 189.48)">ENG</text><text class="cls-3" transform="matrix(0.97, -0.01, 0.01, 1, 180.72, 262.5)">FR</text></svg>